# WaveFront *.obj file (generated by Autodesk ATF)

mtllib CubeWithHole.mtl

g Solid1

v -5.000000 0.000000 0.000000
v -5.000000 0.000000 5.000000
v -5.000000 1.254269 2.396776
v -5.000000 1.254269 2.603224
v -5.000000 1.288250 2.193143
v -5.000000 1.288250 2.806857
v -5.000000 1.355283 1.997881
v -5.000000 1.355283 3.002119
v -5.000000 1.453542 1.816315
v -5.000000 1.453542 3.183685
v -5.000000 1.580345 1.653398
v -5.000000 1.580345 3.346602
v -5.000000 1.732234 1.513574
v -5.000000 1.732234 3.486426
v -5.000000 1.905066 1.400658
v -5.000000 1.905066 3.599342
v -5.000000 2.094126 1.317728
v -5.000000 2.094126 3.682272
v -5.000000 2.294257 1.267048
v -5.000000 2.294257 3.732952
v -5.000000 2.500000 1.250000
v -5.000000 2.500000 3.750000
v -5.000000 2.705743 1.267048
v -5.000000 2.705743 3.732952
v -5.000000 2.905874 1.317728
v -5.000000 2.905874 3.682272
v -5.000000 3.094934 1.400658
v -5.000000 3.094934 3.599342
v -5.000000 3.267766 1.513574
v -5.000000 3.267766 3.486426
v -5.000000 3.419655 1.653398
v -5.000000 3.419655 3.346602
v -5.000000 3.546458 1.816315
v -5.000000 3.546458 3.183685
v -5.000000 3.644717 1.997881
v -5.000000 3.644717 3.002119
v -5.000000 3.711750 2.193143
v -5.000000 3.711750 2.806857
v -5.000000 3.745730 2.396776
v -5.000000 3.745730 2.603224
v -5.000000 5.000000 0.000000
v -5.000000 5.000000 5.000000
v 0.000000 0.000000 0.000000
v 0.000000 0.000000 5.000000
v 0.000000 1.254269 2.396776
v 0.000000 1.254269 2.603224
v 0.000000 1.288250 2.193143
v 0.000000 1.288250 2.806857
v 0.000000 1.355283 1.997881
v 0.000000 1.355283 3.002119
v 0.000000 1.453542 1.816315
v 0.000000 1.453542 3.183685
v 0.000000 1.580345 1.653398
v 0.000000 1.580345 3.346602
v 0.000000 1.732234 1.513574
v 0.000000 1.732234 3.486426
v 0.000000 1.905066 1.400658
v 0.000000 1.905066 3.599342
v 0.000000 2.094126 1.317728
v 0.000000 2.094126 3.682272
v 0.000000 2.294257 1.267048
v 0.000000 2.294257 3.732952
v 0.000000 2.500000 1.250000
v 0.000000 2.500000 3.750000
v 0.000000 2.705743 1.267048
v 0.000000 2.705743 3.732952
v 0.000000 2.905874 1.317728
v 0.000000 2.905874 3.682272
v 0.000000 3.094934 1.400658
v 0.000000 3.094934 3.599342
v 0.000000 3.267766 1.513574
v 0.000000 3.267766 3.486426
v 0.000000 3.419655 1.653398
v 0.000000 3.419655 3.346602
v 0.000000 3.546458 1.816315
v 0.000000 3.546458 3.183685
v 0.000000 3.644717 1.997881
v 0.000000 3.644717 3.002119
v 0.000000 3.711750 2.193143
v 0.000000 3.711750 2.806857
v 0.000000 3.745730 2.396776
v 0.000000 3.745730 2.603224
v 0.000000 5.000000 0.000000
v 0.000000 5.000000 5.000000
vt 9.525000 6.350000 0.000000
vt 9.481697 5.827412 0.000000
vt 9.352970 5.319079 0.000000
vt 9.142329 4.838867 0.000000
vt 8.855521 4.399875 0.000000
vt 8.500369 4.014077 0.000000
vt 8.086560 3.691996 0.000000
vt 7.625383 3.442420 0.000000
vt 7.129416 3.272154 0.000000
vt 6.612189 3.185844 0.000000
vt 6.087811 3.185844 0.000000
vt 5.570583 3.272154 0.000000
vt 5.074617 3.442420 0.000000
vt 4.613440 3.691996 0.000000
vt 4.199631 4.014077 0.000000
vt 3.844479 4.399875 0.000000
vt 3.557671 4.838867 0.000000
vt 3.347030 5.319079 0.000000
vt 3.218303 5.827412 0.000000
vt 3.175000 6.350000 0.000000
vt 3.218303 6.872588 0.000000
vt 3.347030 7.380921 0.000000
vt 3.557671 7.861133 0.000000
vt 3.844479 8.300125 0.000000
vt 4.199631 8.685924 0.000000
vt 4.613440 9.008003 0.000000
vt 5.074617 9.257581 0.000000
vt 5.570583 9.427846 0.000000
vt 6.087811 9.514155 0.000000
vt 6.612189 9.514155 0.000000
vt 7.129416 9.427846 0.000000
vt 7.625383 9.257581 0.000000
vt 8.086560 9.008003 0.000000
vt 8.500369 8.685924 0.000000
vt 8.855521 8.300125 0.000000
vt 9.142329 7.861133 0.000000
vt 9.352970 7.380921 0.000000
vt 9.481697 6.872588 0.000000
vt 0.000000 0.000000 0.000000
vt 12.700000 0.000000 0.000000
vt 12.700000 12.700000 0.000000
vt 0.000000 12.700000 0.000000
vt 0.000000 0.000000 0.000000
vt 12.700000 0.000000 0.000000
vt 12.700000 12.700000 0.000000
vt 0.000000 12.700000 0.000000
vt 9.525000 6.350000 0.000000
vt 9.481697 5.827412 0.000000
vt 9.352970 5.319079 0.000000
vt 9.142329 4.838867 0.000000
vt 8.855521 4.399875 0.000000
vt 8.500369 4.014077 0.000000
vt 8.086560 3.691996 0.000000
vt 7.625383 3.442420 0.000000
vt 7.129416 3.272154 0.000000
vt 6.612189 3.185844 0.000000
vt 6.087811 3.185844 0.000000
vt 5.570583 3.272154 0.000000
vt 5.074617 3.442420 0.000000
vt 4.613440 3.691996 0.000000
vt 4.199631 4.014077 0.000000
vt 3.844479 4.399875 0.000000
vt 3.557671 4.838867 0.000000
vt 3.347030 5.319079 0.000000
vt 3.218303 5.827412 0.000000
vt 3.175000 6.350000 0.000000
vt 3.218303 6.872588 0.000000
vt 3.347030 7.380921 0.000000
vt 3.557671 7.861133 0.000000
vt 3.844479 8.300125 0.000000
vt 4.199631 8.685924 0.000000
vt 4.613440 9.008003 0.000000
vt 5.074617 9.257581 0.000000
vt 5.570583 9.427846 0.000000
vt 6.087811 9.514155 0.000000
vt 6.612189 9.514155 0.000000
vt 7.129416 9.427846 0.000000
vt 7.625383 9.257581 0.000000
vt 8.086560 9.008003 0.000000
vt 8.500369 8.685924 0.000000
vt 8.855521 8.300125 0.000000
vt 9.142329 7.861133 0.000000
vt 9.352970 7.380921 0.000000
vt 9.481697 6.872588 0.000000
vt 0.000000 0.000000 0.000000
vt 12.700000 0.000000 0.000000
vt 12.700000 12.700000 0.000000
vt 0.000000 12.700000 0.000000
vt 0.000000 0.000000 0.000000
vt 12.700000 0.000000 0.000000
vt 12.700000 12.700000 0.000000
vt 0.000000 12.700000 0.000000
vt -6.350000 6.350000 0.000000
vt -6.350000 -6.350000 0.000000
vt 6.350000 -6.350000 0.000000
vt 6.350000 6.350000 0.000000
vt 6.350000 -6.350000 0.000000
vt 6.350000 6.350000 0.000000
vt -6.350000 6.350000 0.000000
vt -6.350000 -6.350000 0.000000
vt 9.297046 9.974557 0.000000
vt 9.297046 9.449580 0.000000
vt 9.297046 8.924603 0.000000
vt 9.297046 8.399627 0.000000
vt 9.297046 7.874650 0.000000
vt 9.297046 7.349673 0.000000
vt 9.297046 6.824697 0.000000
vt 9.297046 6.299720 0.000000
vt 9.297046 5.774743 0.000000
vt 9.297046 5.249766 0.000000
vt 9.297046 4.724790 0.000000
vt 9.297046 4.199813 0.000000
vt 9.297046 3.674837 0.000000
vt 9.297046 3.149860 0.000000
vt 9.297046 2.624883 0.000000
vt 9.297046 2.099907 0.000000
vt 9.297046 1.574930 0.000000
vt 9.297046 1.049953 0.000000
vt 9.297046 0.524977 0.000000
vt 9.297046 0.000000 0.000000
vt 9.297046 -0.524977 0.000000
vt 9.297046 -1.049953 0.000000
vt 9.297046 -1.574930 0.000000
vt 9.297046 -2.099907 0.000000
vt 9.297046 -2.624883 0.000000
vt 9.297046 -3.149860 0.000000
vt 9.297046 -3.674837 0.000000
vt 9.297046 -4.199813 0.000000
vt 9.297046 -4.724790 0.000000
vt 9.297046 -5.249766 0.000000
vt 9.297046 -5.774743 0.000000
vt 9.297046 -6.299720 0.000000
vt 9.297046 -6.824697 0.000000
vt 9.297046 -7.349673 0.000000
vt 9.297046 -7.874650 0.000000
vt 9.297046 -8.399627 0.000000
vt 9.297046 -8.924603 0.000000
vt 9.297046 -9.449580 0.000000
vt 21.997044 0.000000 0.000000
vt 21.997044 0.524977 0.000000
vt 21.997044 1.049953 0.000000
vt 21.997044 1.574930 0.000000
vt 21.997044 2.099907 0.000000
vt 21.997044 2.624883 0.000000
vt 21.997044 3.149860 0.000000
vt 21.997044 3.674837 0.000000
vt 21.997044 4.199813 0.000000
vt 21.997044 4.724790 0.000000
vt 21.997044 5.249766 0.000000
vt 21.997044 5.774743 0.000000
vt 21.997044 6.299720 0.000000
vt 21.997044 6.824697 0.000000
vt 21.997044 7.349673 0.000000
vt 21.997044 7.874650 0.000000
vt 21.997044 8.399627 0.000000
vt 21.997044 8.924603 0.000000
vt 21.997044 9.449580 0.000000
vt 21.997044 -9.974557 0.000000
vt 21.997044 -9.449580 0.000000
vt 21.997044 -8.924603 0.000000
vt 21.997044 -8.399627 0.000000
vt 21.997044 -7.874650 0.000000
vt 21.997044 -7.349673 0.000000
vt 21.997044 -6.824697 0.000000
vt 21.997044 -6.299720 0.000000
vt 21.997044 -5.774743 0.000000
vt 21.997044 -5.249766 0.000000
vt 21.997044 -4.724790 0.000000
vt 21.997044 -4.199813 0.000000
vt 21.997044 -3.674837 0.000000
vt 21.997044 -3.149860 0.000000
vt 21.997044 -2.624883 0.000000
vt 21.997044 -2.099907 0.000000
vt 21.997044 -1.574930 0.000000
vt 21.997044 -1.049953 0.000000
vt 21.997044 -0.524977 0.000000
vt 21.997044 9.974557 0.000000
vt 9.297046 -9.974557 0.000000
vn -2.540000 0.000000 0.000000
vn -2.540000 0.000000 0.000000
vn -2.540000 0.000000 0.000000
vn -2.540000 0.000000 0.000000
vn -2.540000 0.000000 0.000000
vn -2.540000 0.000000 0.000000
vn -2.540000 0.000000 0.000000
vn -2.540000 0.000000 0.000000
vn -2.540000 0.000000 0.000000
vn -2.540000 0.000000 0.000000
vn -2.540000 0.000000 0.000000
vn -2.540000 0.000000 0.000000
vn -2.540000 0.000000 0.000000
vn -2.540000 0.000000 0.000000
vn -2.540000 0.000000 0.000000
vn -2.540000 0.000000 0.000000
vn -2.540000 0.000000 0.000000
vn -2.540000 0.000000 0.000000
vn -2.540000 0.000000 0.000000
vn -2.540000 0.000000 0.000000
vn -2.540000 0.000000 0.000000
vn -2.540000 0.000000 0.000000
vn -2.540000 0.000000 0.000000
vn -2.540000 0.000000 0.000000
vn -2.540000 0.000000 0.000000
vn -2.540000 0.000000 0.000000
vn -2.540000 0.000000 0.000000
vn -2.540000 0.000000 0.000000
vn -2.540000 0.000000 0.000000
vn -2.540000 0.000000 0.000000
vn -2.540000 0.000000 0.000000
vn -2.540000 0.000000 0.000000
vn -2.540000 0.000000 0.000000
vn -2.540000 0.000000 0.000000
vn -2.540000 0.000000 0.000000
vn -2.540000 0.000000 0.000000
vn -2.540000 0.000000 0.000000
vn -2.540000 0.000000 0.000000
vn -2.540000 0.000000 0.000000
vn -2.540000 0.000000 0.000000
vn -2.540000 0.000000 0.000000
vn -2.540000 0.000000 0.000000
vn 0.000000 0.000000 2.540000
vn 0.000000 0.000000 2.540000
vn 0.000000 0.000000 2.540000
vn 0.000000 0.000000 2.540000
vn 2.540000 0.000000 0.000000
vn 2.540000 0.000000 0.000000
vn 2.540000 0.000000 0.000000
vn 2.540000 0.000000 0.000000
vn 2.540000 0.000000 0.000000
vn 2.540000 0.000000 0.000000
vn 2.540000 0.000000 0.000000
vn 2.540000 0.000000 0.000000
vn 2.540000 0.000000 0.000000
vn 2.540000 0.000000 0.000000
vn 2.540000 0.000000 0.000000
vn 2.540000 0.000000 0.000000
vn 2.540000 0.000000 0.000000
vn 2.540000 0.000000 0.000000
vn 2.540000 0.000000 0.000000
vn 2.540000 0.000000 0.000000
vn 2.540000 0.000000 0.000000
vn 2.540000 0.000000 0.000000
vn 2.540000 0.000000 0.000000
vn 2.540000 0.000000 0.000000
vn 2.540000 0.000000 0.000000
vn 2.540000 0.000000 0.000000
vn 2.540000 0.000000 0.000000
vn 2.540000 0.000000 0.000000
vn 2.540000 0.000000 0.000000
vn 2.540000 0.000000 0.000000
vn 2.540000 0.000000 0.000000
vn 2.540000 0.000000 0.000000
vn 2.540000 0.000000 0.000000
vn 2.540000 0.000000 0.000000
vn 2.540000 0.000000 0.000000
vn 2.540000 0.000000 0.000000
vn 2.540000 0.000000 0.000000
vn 2.540000 0.000000 0.000000
vn 2.540000 0.000000 0.000000
vn 2.540000 0.000000 0.000000
vn 2.540000 0.000000 0.000000
vn 2.540000 0.000000 0.000000
vn 2.540000 0.000000 0.000000
vn 2.540000 0.000000 0.000000
vn 2.540000 0.000000 0.000000
vn 2.540000 0.000000 0.000000
vn 0.000000 0.000000 -2.540000
vn 0.000000 0.000000 -2.540000
vn 0.000000 0.000000 -2.540000
vn 0.000000 0.000000 -2.540000
vn 0.000000 2.540000 0.000000
vn 0.000000 2.540000 0.000000
vn 0.000000 2.540000 0.000000
vn 0.000000 2.540000 0.000000
vn 0.000000 -2.540000 0.000000
vn 0.000000 -2.540000 0.000000
vn 0.000000 -2.540000 0.000000
vn 0.000000 -2.540000 0.000000
vn 0.000000 0.000000 -2.540000
vn 0.000000 -0.418070 -2.505358
vn 0.000000 -0.824737 -2.402376
vn 0.000000 -1.208906 -2.233863
vn 0.000000 -1.560100 -2.004417
vn 0.000000 -1.868739 -1.720295
vn 0.000000 -2.126403 -1.389248
vn 0.000000 -2.326064 -1.020306
vn 0.000000 -2.462277 -0.623533
vn 0.000000 -2.531325 -0.209752
vn 0.000000 -2.531325 0.209752
vn 0.000000 -2.462277 0.623533
vn 0.000000 -2.326064 1.020306
vn 0.000000 -2.126403 1.389248
vn 0.000000 -1.868739 1.720295
vn 0.000000 -1.560100 2.004417
vn 0.000000 -1.208906 2.233863
vn 0.000000 -0.824737 2.402376
vn 0.000000 -0.418070 2.505358
vn 0.000000 0.000000 2.540000
vn 0.000000 0.418070 2.505358
vn 0.000000 0.824737 2.402376
vn 0.000000 1.208906 2.233863
vn 0.000000 1.560100 2.004417
vn 0.000000 1.868739 1.720295
vn 0.000000 2.126403 1.389248
vn 0.000000 2.326064 1.020306
vn 0.000000 2.462277 0.623533
vn 0.000000 2.531325 0.209752
vn 0.000000 2.531325 -0.209752
vn 0.000000 2.462277 -0.623533
vn 0.000000 2.326064 -1.020306
vn 0.000000 2.126403 -1.389248
vn 0.000000 1.868739 -1.720295
vn 0.000000 1.560100 -2.004417
vn 0.000000 1.208906 -2.233863
vn 0.000000 0.824737 -2.402376
vn 0.000000 0.418070 -2.505358
vn 0.000000 0.000000 2.540000
vn 0.000000 -0.418070 2.505358
vn 0.000000 -0.824737 2.402376
vn 0.000000 -1.208906 2.233863
vn 0.000000 -1.560100 2.004417
vn 0.000000 -1.868739 1.720295
vn 0.000000 -2.126403 1.389248
vn 0.000000 -2.326064 1.020306
vn 0.000000 -2.462277 0.623533
vn 0.000000 -2.531325 0.209752
vn 0.000000 -2.531325 -0.209752
vn 0.000000 -2.462277 -0.623533
vn 0.000000 -2.326064 -1.020306
vn 0.000000 -2.126403 -1.389248
vn 0.000000 -1.868739 -1.720295
vn 0.000000 -1.560100 -2.004417
vn 0.000000 -1.208906 -2.233863
vn 0.000000 -0.824737 -2.402376
vn 0.000000 -0.418070 -2.505358
vn 0.000000 0.000000 -2.540000
vn 0.000000 0.418070 -2.505358
vn 0.000000 0.824737 -2.402376
vn 0.000000 1.208906 -2.233863
vn 0.000000 1.560100 -2.004417
vn 0.000000 1.868739 -1.720295
vn 0.000000 2.126403 -1.389248
vn 0.000000 2.326064 -1.020306
vn 0.000000 2.462277 -0.623533
vn 0.000000 2.531325 -0.209752
vn 0.000000 2.531325 0.209752
vn 0.000000 2.462277 0.623533
vn 0.000000 2.326064 1.020306
vn 0.000000 2.126403 1.389248
vn 0.000000 1.868739 1.720295
vn 0.000000 1.560100 2.004417
vn 0.000000 1.208906 2.233863
vn 0.000000 0.824737 2.402376
vn 0.000000 0.418070 2.505358
vn 0.000000 0.000000 -2.540000
vn 0.000000 0.000000 -2.540000
usemtl 191,191,191
f 20/2/2 2/40/40 22/1/1
f 22/1/1 2/40/40 42/41/41
f 22/1/1 42/41/41 24/38/38
f 24/38/38 42/41/41 26/37/37
f 26/37/37 42/41/41 28/36/36
f 28/36/36 42/41/41 30/35/35
f 30/35/35 42/41/41 32/34/34
f 32/34/34 42/41/41 34/33/33
f 34/33/33 42/41/41 36/32/32
f 36/32/32 42/41/41 38/31/31
f 38/31/31 42/41/41 40/30/30
f 40/30/30 42/41/41 41/42/42
f 40/30/30 41/42/42 39/29/29
f 39/29/29 41/42/42 37/28/28
f 37/28/28 41/42/42 35/27/27
f 35/27/27 41/42/42 33/26/26
f 33/26/26 41/42/42 31/25/25
f 31/25/25 41/42/42 29/24/24
f 29/24/24 41/42/42 27/23/23
f 27/23/23 41/42/42 25/22/22
f 25/22/22 41/42/42 23/21/21
f 23/21/21 41/42/42 21/20/20
f 21/20/20 41/42/42 1/39/39
f 21/20/20 1/39/39 19/19/19
f 19/19/19 1/39/39 17/18/18
f 17/18/18 1/39/39 15/17/17
f 15/17/17 1/39/39 13/16/16
f 13/16/16 1/39/39 11/15/15
f 11/15/15 1/39/39 9/14/14
f 9/14/14 1/39/39 7/13/13
f 7/13/13 1/39/39 5/12/12
f 5/12/12 1/39/39 3/11/11
f 3/11/11 1/39/39 2/40/40
f 3/11/11 2/40/40 4/10/10
f 4/10/10 2/40/40 6/9/9
f 6/9/9 2/40/40 8/8/8
f 8/8/8 2/40/40 10/7/7
f 10/7/7 2/40/40 12/6/6
f 12/6/6 2/40/40 14/5/5
f 14/5/5 2/40/40 16/4/4
f 16/4/4 2/40/40 18/3/3
f 18/3/3 2/40/40 20/2/2
f 2/43/43 44/44/44 42/46/46
f 42/46/46 44/44/44 84/45/45
f 61/48/48 43/86/86 63/47/47
f 63/47/47 43/86/86 83/87/87
f 63/47/47 83/87/87 65/84/84
f 65/84/84 83/87/87 67/83/83
f 67/83/83 83/87/87 69/82/82
f 69/82/82 83/87/87 71/81/81
f 71/81/81 83/87/87 73/80/80
f 73/80/80 83/87/87 75/79/79
f 75/79/79 83/87/87 77/78/78
f 77/78/78 83/87/87 79/77/77
f 79/77/77 83/87/87 81/76/76
f 81/76/76 83/87/87 84/88/88
f 81/76/76 84/88/88 82/75/75
f 82/75/75 84/88/88 80/74/74
f 80/74/74 84/88/88 78/73/73
f 78/73/73 84/88/88 76/72/72
f 76/72/72 84/88/88 74/71/71
f 74/71/71 84/88/88 72/70/70
f 72/70/70 84/88/88 70/69/69
f 70/69/69 84/88/88 68/68/68
f 68/68/68 84/88/88 66/67/67
f 66/67/67 84/88/88 64/66/66
f 64/66/66 84/88/88 44/85/85
f 64/66/66 44/85/85 62/65/65
f 62/65/65 44/85/85 60/64/64
f 60/64/64 44/85/85 58/63/63
f 58/63/63 44/85/85 56/62/62
f 56/62/62 44/85/85 54/61/61
f 54/61/61 44/85/85 52/60/60
f 52/60/60 44/85/85 50/59/59
f 50/59/59 44/85/85 48/58/58
f 48/58/58 44/85/85 46/57/57
f 46/57/57 44/85/85 43/86/86
f 46/57/57 43/86/86 45/56/56
f 45/56/56 43/86/86 47/55/55
f 47/55/55 43/86/86 49/54/54
f 49/54/54 43/86/86 51/53/53
f 51/53/53 43/86/86 53/52/52
f 53/52/52 43/86/86 55/51/51
f 55/51/51 43/86/86 57/50/50
f 57/50/50 43/86/86 59/49/49
f 59/49/49 43/86/86 61/48/48
f 43/89/89 1/90/90 83/92/92
f 83/92/92 1/90/90 41/91/91
f 41/94/94 42/95/95 83/93/93
f 83/93/93 42/95/95 84/96/96
f 43/98/98 44/99/99 1/97/97
f 1/97/97 44/99/99 2/100/100
f 24/102/102 66/157/157 22/101/101
f 22/101/101 66/157/157 64/177/177
f 22/178/178 64/158/158 20/138/138
f 20/138/138 64/158/158 62/159/159
f 20/138/138 62/159/159 18/137/137
f 18/137/137 62/159/159 60/160/160
f 18/137/137 60/160/160 16/136/136
f 16/136/136 60/160/160 58/161/161
f 16/136/136 58/161/161 14/135/135
f 14/135/135 58/161/161 56/162/162
f 14/135/135 56/162/162 12/134/134
f 12/134/134 56/162/162 54/163/163
f 12/134/134 54/163/163 10/133/133
f 10/133/133 54/163/163 52/164/164
f 10/133/133 52/164/164 8/132/132
f 8/132/132 52/164/164 50/165/165
f 8/132/132 50/165/165 6/131/131
f 6/131/131 50/165/165 48/166/166
f 6/131/131 48/166/166 4/130/130
f 4/130/130 48/166/166 46/167/167
f 4/130/130 46/167/167 3/129/129
f 3/129/129 46/167/167 45/168/168
f 3/129/129 45/168/168 5/128/128
f 5/128/128 45/168/168 47/169/169
f 5/128/128 47/169/169 7/127/127
f 7/127/127 47/169/169 49/170/170
f 7/127/127 49/170/170 9/126/126
f 9/126/126 49/170/170 51/171/171
f 9/126/126 51/171/171 11/125/125
f 11/125/125 51/171/171 53/172/172
f 11/125/125 53/172/172 13/124/124
f 13/124/124 53/172/172 55/173/173
f 13/124/124 55/173/173 15/123/123
f 15/123/123 55/173/173 57/174/174
f 15/123/123 57/174/174 17/122/122
f 17/122/122 57/174/174 59/175/175
f 17/122/122 59/175/175 19/121/121
f 19/121/121 59/175/175 61/176/176
f 19/121/121 61/176/176 21/120/120
f 21/120/120 61/176/176 63/139/139
f 21/120/120 63/139/139 23/119/119
f 23/119/119 63/139/139 65/140/140
f 23/119/119 65/140/140 25/118/118
f 25/118/118 65/140/140 67/141/141
f 25/118/118 67/141/141 27/117/117
f 27/117/117 67/141/141 69/142/142
f 27/117/117 69/142/142 29/116/116
f 29/116/116 69/142/142 71/143/143
f 29/116/116 71/143/143 31/115/115
f 31/115/115 71/143/143 73/144/144
f 31/115/115 73/144/144 33/114/114
f 33/114/114 73/144/144 75/145/145
f 33/114/114 75/145/145 35/113/113
f 35/113/113 75/145/145 77/146/146
f 35/113/113 77/146/146 37/112/112
f 37/112/112 77/146/146 79/147/147
f 37/112/112 79/147/147 39/111/111
f 39/111/111 79/147/147 81/148/148
f 39/111/111 81/148/148 40/110/110
f 40/110/110 81/148/148 82/149/149
f 40/110/110 82/149/149 38/109/109
f 38/109/109 82/149/149 80/150/150
f 38/109/109 80/150/150 36/108/108
f 36/108/108 80/150/150 78/151/151
f 36/108/108 78/151/151 34/107/107
f 34/107/107 78/151/151 76/152/152
f 34/107/107 76/152/152 32/106/106
f 32/106/106 76/152/152 74/153/153
f 32/106/106 74/153/153 30/105/105
f 30/105/105 74/153/153 72/154/154
f 30/105/105 72/154/154 28/104/104
f 28/104/104 72/154/154 70/155/155
f 28/104/104 70/155/155 26/103/103
f 26/103/103 70/155/155 68/156/156
f 26/103/103 68/156/156 24/102/102
f 24/102/102 68/156/156 66/157/157

# 84 vertices
# 178 texture params
# 178 normals
# 168 facets

# 1 groups
